<mxfile host="app.diagrams.net" modified="2024-06-18T12:18:10.749Z" agent="Mozilla/5.0 (Windows NT 10.0; Win64; x64) AppleWebKit/537.36 (KHTML, like Gecko) Chrome/126.0.0.0 Safari/537.36" etag="9T0McDKgduJenwMzIEFi" version="24.5.4" type="github" pages="2">
  <diagram id="C5RBs43oDa-KdzZeNtuy" name="NiowaveAirportDB">
    <mxGraphModel dx="2261" dy="1907" grid="1" gridSize="10" guides="1" tooltips="1" connect="1" arrows="1" fold="1" page="1" pageScale="1" pageWidth="827" pageHeight="1169" math="0" shadow="0">
      <root>
        <mxCell id="WIyWlLk6GJQsqaUBKTNV-0" />
        <mxCell id="WIyWlLk6GJQsqaUBKTNV-1" parent="WIyWlLk6GJQsqaUBKTNV-0" />
        <mxCell id="Q_OAc749fxsU2D-CSGNo-0" value="Niowave DB" style="shape=cylinder3;whiteSpace=wrap;html=1;boundedLbl=1;backgroundOutline=1;size=15;" parent="WIyWlLk6GJQsqaUBKTNV-1" vertex="1">
          <mxGeometry x="570" y="-20" width="60" height="80" as="geometry" />
        </mxCell>
        <mxCell id="RSMJkPqzbyXdzeUL3Xai-1" value="Beam (20)" style="swimlane;fontStyle=0;childLayout=stackLayout;horizontal=1;startSize=30;horizontalStack=0;resizeParent=1;resizeParentMax=0;resizeLast=0;collapsible=1;marginBottom=0;whiteSpace=wrap;html=1;fillColor=#dae8fc;strokeColor=#6c8ebf;" parent="WIyWlLk6GJQsqaUBKTNV-1" vertex="1">
          <mxGeometry x="20" y="110" width="160" height="370" as="geometry" />
        </mxCell>
        <mxCell id="RSMJkPqzbyXdzeUL3Xai-2" value="&lt;div&gt;Time_Stamp&lt;/div&gt;&lt;div&gt;Time_Stamp_ms&lt;/div&gt;&lt;div&gt;Recirc Bypass Dump Flow&lt;/div&gt;&lt;div&gt;&lt;b&gt;&lt;u&gt;Recirc Bypass Dump Power&lt;/u&gt;&lt;/b&gt;&lt;/div&gt;&lt;div&gt;SRF VVA SP&lt;/div&gt;&lt;div&gt;SRF Reg Status&lt;/div&gt;&lt;div&gt;SRF Pt SP&lt;/div&gt;&lt;div&gt;&lt;u&gt;&lt;b&gt;Electrometer Current&lt;/b&gt;&lt;/u&gt;&lt;/div&gt;&lt;div&gt;&lt;u&gt;&lt;b&gt;Electrometer Ranging&lt;/b&gt;&lt;/u&gt;&lt;/div&gt;&lt;div&gt;SRF Pf&lt;/div&gt;&lt;div&gt;SRF Pr&lt;/div&gt;&lt;div&gt;&lt;u&gt;&lt;b&gt;SRF PtdBm&lt;/b&gt;&lt;/u&gt;&lt;/div&gt;&lt;div&gt;&lt;u&gt;&lt;b&gt;RFBM Power&lt;/b&gt;&lt;/u&gt;&lt;/div&gt;&lt;div&gt;Recirc Mid Current&lt;/div&gt;&lt;div&gt;Recirc Bypass Dump Current&lt;/div&gt;&lt;div&gt;Signal Generator Drive Frequency&lt;/div&gt;&lt;div&gt;Accumlated Charge&lt;/div&gt;&lt;div&gt;Charge Rate&lt;/div&gt;&lt;div&gt;Cooling Loop Flow&lt;/div&gt;&lt;div&gt;SRF VVA SP slider&lt;/div&gt;" style="text;strokeColor=none;fillColor=none;align=left;verticalAlign=middle;spacingLeft=4;spacingRight=4;overflow=hidden;points=[[0,0.5],[1,0.5]];portConstraint=eastwest;rotatable=0;whiteSpace=wrap;html=1;" parent="RSMJkPqzbyXdzeUL3Xai-1" vertex="1">
          <mxGeometry y="30" width="160" height="340" as="geometry" />
        </mxCell>
        <mxCell id="lW4t6R7ozUzYQwVeIEWx-2" value="ALARMHISTORY (26)" style="swimlane;fontStyle=0;childLayout=stackLayout;horizontal=1;startSize=30;horizontalStack=0;resizeParent=1;resizeParentMax=0;resizeLast=0;collapsible=1;marginBottom=0;whiteSpace=wrap;html=1;fillColor=#f8cecc;strokeColor=#b85450;" parent="WIyWlLk6GJQsqaUBKTNV-1" vertex="1">
          <mxGeometry x="250" y="110" width="140" height="480" as="geometry" />
        </mxCell>
        <mxCell id="lW4t6R7ozUzYQwVeIEWx-3" value="&lt;div&gt;Al_Start_Time&lt;/div&gt;&lt;div&gt;Al_Start_Time_ms&lt;/div&gt;&lt;div&gt;Al_Tag&lt;/div&gt;&lt;div&gt;Al_Message&lt;/div&gt;&lt;div&gt;Al_Ack&lt;/div&gt;&lt;div&gt;Al_Active&lt;/div&gt;&lt;div&gt;Al_Tag_Value&lt;/div&gt;&lt;div&gt;Al_Prev_Tag_Value&lt;/div&gt;&lt;div&gt;Al_Group&lt;/div&gt;&lt;div&gt;Al_Priority&lt;/div&gt;&lt;div&gt;Al_Selection&lt;/div&gt;&lt;div&gt;Al_Type&lt;/div&gt;&lt;div&gt;Al_Ack_Req&lt;/div&gt;&lt;div&gt;&lt;b&gt;&lt;u&gt;Al_Norm_Time&lt;/u&gt;&lt;/b&gt;&lt;/div&gt;&lt;div&gt;&lt;b&gt;&lt;u&gt;Al_Norm_Time_ms&lt;/u&gt;&lt;/b&gt;&lt;/div&gt;&lt;div&gt;&lt;b&gt;&lt;u&gt;Al_Ack_Time&lt;/u&gt;&lt;/b&gt;&lt;/div&gt;&lt;div&gt;&lt;b&gt;&lt;u&gt;Al_Ack_Time_ms&lt;/u&gt;&lt;/b&gt;&lt;/div&gt;&lt;div&gt;Al_User&lt;/div&gt;&lt;div&gt;Al_User_Comment&lt;/div&gt;&lt;div&gt;Al_User_Full&lt;/div&gt;&lt;div&gt;Al_Station&lt;/div&gt;&lt;div&gt;Al_Deleted&lt;/div&gt;&lt;div&gt;Al_Event_Time&lt;/div&gt;&lt;div&gt;Al_Event_Time_ms&lt;/div&gt;&lt;div&gt;Last_Update&lt;/div&gt;&lt;div&gt;Last_Update_ms&lt;/div&gt;" style="text;strokeColor=none;fillColor=none;align=left;verticalAlign=middle;spacingLeft=4;spacingRight=4;overflow=hidden;points=[[0,0.5],[1,0.5]];portConstraint=eastwest;rotatable=0;whiteSpace=wrap;html=1;" parent="lW4t6R7ozUzYQwVeIEWx-2" vertex="1">
          <mxGeometry y="30" width="140" height="450" as="geometry" />
        </mxCell>
        <mxCell id="lW4t6R7ozUzYQwVeIEWx-6" value="EVENTHISTORY (15)&lt;div&gt;(Empty)&lt;/div&gt;" style="swimlane;fontStyle=0;childLayout=stackLayout;horizontal=1;startSize=30;horizontalStack=0;resizeParent=1;resizeParentMax=0;resizeLast=0;collapsible=1;marginBottom=0;whiteSpace=wrap;html=1;fillColor=#f8cecc;strokeColor=#b85450;" parent="WIyWlLk6GJQsqaUBKTNV-1" vertex="1">
          <mxGeometry x="470" y="130" width="150" height="340" as="geometry" />
        </mxCell>
        <mxCell id="lW4t6R7ozUzYQwVeIEWx-7" value="&lt;div&gt;Ev_Type&lt;/div&gt;&lt;div&gt;Ev_Time&lt;/div&gt;&lt;div&gt;Ev_Time_ms&lt;/div&gt;&lt;div&gt;Ev_Info&lt;/div&gt;&lt;div&gt;Ev_User&lt;/div&gt;&lt;div&gt;Ev_User_Full&lt;/div&gt;&lt;div&gt;Ev_Message&lt;/div&gt;&lt;div&gt;Ev_Value&lt;/div&gt;&lt;div&gt;Ev_Prev_Value&lt;/div&gt;&lt;div&gt;Ev_Station&lt;/div&gt;&lt;div&gt;Ev_Comment&lt;/div&gt;&lt;div&gt;Ev_Source&lt;/div&gt;&lt;div&gt;Ev_Deleted&lt;/div&gt;&lt;div&gt;Last_Update&lt;/div&gt;&lt;div&gt;Last_Update_ms&lt;/div&gt;" style="text;strokeColor=none;fillColor=none;align=left;verticalAlign=middle;spacingLeft=4;spacingRight=4;overflow=hidden;points=[[0,0.5],[1,0.5]];portConstraint=eastwest;rotatable=0;whiteSpace=wrap;html=1;" parent="lW4t6R7ozUzYQwVeIEWx-6" vertex="1">
          <mxGeometry y="30" width="150" height="310" as="geometry" />
        </mxCell>
        <mxCell id="lW4t6R7ozUzYQwVeIEWx-10" value="Injector (61)" style="swimlane;fontStyle=0;childLayout=stackLayout;horizontal=1;startSize=30;horizontalStack=0;resizeParent=1;resizeParentMax=0;resizeLast=0;collapsible=1;marginBottom=0;whiteSpace=wrap;html=1;fillColor=#dae8fc;strokeColor=#6c8ebf;" parent="WIyWlLk6GJQsqaUBKTNV-1" vertex="1">
          <mxGeometry x="20" y="520" width="150" height="970" as="geometry" />
        </mxCell>
        <mxCell id="lW4t6R7ozUzYQwVeIEWx-11" value="&lt;div&gt;Time_Stamp&lt;/div&gt;&lt;div&gt;Time_Stamp_ms&lt;/div&gt;&lt;div&gt;&lt;b&gt;&lt;u&gt;BH Pt&lt;/u&gt;&lt;/b&gt;&lt;/div&gt;&lt;div&gt;&lt;b&gt;&lt;u&gt;DBA Dump Watts&lt;/u&gt;&lt;/b&gt;&lt;/div&gt;&lt;div&gt;CHB Power&lt;/div&gt;&lt;div&gt;CHB Res&lt;/div&gt;&lt;div&gt;CHB Voltage&lt;/div&gt;&lt;div&gt;CHCS Imon&lt;/div&gt;&lt;div&gt;CHB VA Temp&lt;/div&gt;&lt;div&gt;CHB IR Status&lt;/div&gt;&lt;div&gt;Cu Gun Pt&lt;/div&gt;&lt;div&gt;CHCS Sensor Status&lt;/div&gt;&lt;div&gt;Cu Gun Amp VSWR&lt;/div&gt;&lt;div&gt;Cu Gun Amp VSWR Latch&lt;/div&gt;&lt;div&gt;Cu Gun VVA SP&lt;/div&gt;&lt;div&gt;Cu Gun Heat Tape Rqst&lt;/div&gt;&lt;div&gt;BH Pf&lt;/div&gt;&lt;div&gt;BH Pf Reg Status&lt;/div&gt;&lt;div&gt;BH Pf Reg SP&lt;/div&gt;&lt;div&gt;BH Pr&lt;/div&gt;&lt;div&gt;V2&lt;/div&gt;&lt;div&gt;V1&lt;/div&gt;&lt;div&gt;Cu Gun Pf&lt;/div&gt;&lt;div&gt;Cu Gun Pf Reg Status&lt;/div&gt;&lt;div&gt;Cu Gun Pf Reg SP&lt;/div&gt;&lt;div&gt;Cu Gun Pr&lt;/div&gt;&lt;div&gt;Cu Gun Phase Reg Status&lt;/div&gt;&lt;div&gt;Trek Bias V0&lt;/div&gt;&lt;div&gt;Pulse Freq Readback&lt;/div&gt;&lt;div&gt;Pulse Duty SP&lt;/div&gt;&lt;div&gt;Pulse Duty Readback&lt;/div&gt;&lt;div&gt;Pulse Delay SP&lt;/div&gt;&lt;div&gt;Pulse Delay Readback&lt;/div&gt;&lt;div&gt;&lt;b&gt;&lt;u&gt;DBA Bypass Current&lt;/u&gt;&lt;/b&gt;&lt;/div&gt;&lt;div&gt;CHB EC&lt;/div&gt;&lt;div&gt;&lt;b&gt;&lt;u&gt;Cu Gun Amp Flow Avg&lt;/u&gt;&lt;/b&gt;&lt;/div&gt;&lt;div&gt;&lt;b&gt;&lt;u&gt;IR Temp&lt;/u&gt;&lt;/b&gt;&lt;/div&gt;&lt;div&gt;Cu Gun Pt Avg&lt;/div&gt;&lt;div&gt;CHB I&lt;/div&gt;&lt;div&gt;CHB V&lt;/div&gt;&lt;div&gt;&lt;b&gt;&lt;u&gt;PLC_LE_CHB_IR_Temp&lt;/u&gt;&lt;/b&gt;&lt;/div&gt;&lt;div&gt;&lt;b&gt;&lt;u&gt;Cu Heat Tape Request&lt;/u&gt;&lt;/b&gt;&lt;/div&gt;&lt;div&gt;&lt;b&gt;&lt;u&gt;BH Amp Pf&lt;/u&gt;&lt;/b&gt;&lt;/div&gt;&lt;div&gt;&lt;b&gt;&lt;u&gt;BH Amp Pr&lt;/u&gt;&lt;/b&gt;&lt;/div&gt;&lt;div&gt;&lt;b&gt;&lt;u&gt;BH V2&lt;/u&gt;&lt;/b&gt;&lt;/div&gt;&lt;div&gt;&lt;b&gt;&lt;u&gt;Gun V1 kV&lt;/u&gt;&lt;/b&gt;&lt;/div&gt;&lt;div&gt;&lt;b&gt;&lt;u&gt;Cu Amp Pf&lt;/u&gt;&lt;/b&gt;&lt;/div&gt;&lt;div&gt;&lt;b&gt;&lt;u&gt;Cu Amp Pr&lt;/u&gt;&lt;/b&gt;&lt;/div&gt;&lt;div&gt;&lt;b&gt;&lt;u&gt;DBA Bypass Dump&lt;/u&gt;&lt;/b&gt;&lt;/div&gt;&lt;div&gt;&lt;b&gt;&lt;u&gt;Emitted Current&lt;/u&gt;&lt;/b&gt;&lt;/div&gt;&lt;div&gt;&lt;b&gt;&lt;u&gt;CHB Volts&lt;/u&gt;&lt;/b&gt;&lt;/div&gt;&lt;div&gt;&lt;b&gt;&lt;u&gt;CHB&amp;nbsp; Current&lt;/u&gt;&lt;/b&gt;&lt;/div&gt;&lt;div&gt;&lt;b&gt;&lt;u&gt;Cu Amp Water Flow&lt;/u&gt;&lt;/b&gt;&lt;/div&gt;&lt;div&gt;&lt;b&gt;&lt;u&gt;Cu Amp PtdBm&lt;/u&gt;&lt;/b&gt;&lt;/div&gt;&lt;div&gt;Cu Gun Amp Flow&lt;/div&gt;&lt;div&gt;&lt;b&gt;&lt;u&gt;V1 Test&lt;/u&gt;&lt;/b&gt;&lt;/div&gt;&lt;div&gt;&lt;b&gt;&lt;u&gt;V1 Set Point&lt;/u&gt;&lt;/b&gt;&lt;/div&gt;&lt;div&gt;V1 Regulation Target&lt;/div&gt;&lt;div&gt;BH Amp PtdBm&lt;/div&gt;&lt;div&gt;DBA Dump Return Flow&lt;/div&gt;&lt;div&gt;V1 Gated kV&lt;/div&gt;" style="text;strokeColor=none;fillColor=none;align=left;verticalAlign=middle;spacingLeft=4;spacingRight=4;overflow=hidden;points=[[0,0.5],[1,0.5]];portConstraint=eastwest;rotatable=0;whiteSpace=wrap;html=1;" parent="lW4t6R7ozUzYQwVeIEWx-10" vertex="1">
          <mxGeometry y="30" width="150" height="940" as="geometry" />
        </mxCell>
        <mxCell id="lW4t6R7ozUzYQwVeIEWx-14" value="MagRB (103)" style="swimlane;fontStyle=0;childLayout=stackLayout;horizontal=1;startSize=30;horizontalStack=0;resizeParent=1;resizeParentMax=0;resizeLast=0;collapsible=1;marginBottom=0;whiteSpace=wrap;html=1;fillColor=#dae8fc;strokeColor=#6c8ebf;" parent="WIyWlLk6GJQsqaUBKTNV-1" vertex="1">
          <mxGeometry x="240" y="620" width="160" height="1540" as="geometry" />
        </mxCell>
        <mxCell id="lW4t6R7ozUzYQwVeIEWx-15" value="&lt;div&gt;Time_Stamp&lt;/div&gt;&lt;div&gt;Time_Stamp&lt;/div&gt;&lt;div&gt;Time_Stamp_ms&lt;/div&gt;&lt;div&gt;WF H Read - 1&lt;/div&gt;&lt;div&gt;WF V Read - 1&lt;/div&gt;&lt;div&gt;WF H Read - 2&lt;/div&gt;&lt;div&gt;WF V Read - 2&lt;/div&gt;&lt;div&gt;WF H Read - 3&lt;/div&gt;&lt;div&gt;WF V Read - 3&lt;/div&gt;&lt;div&gt;WF H Read - 4&lt;/div&gt;&lt;div&gt;WF V Read - 4&lt;/div&gt;&lt;div&gt;WF H Read - 5&lt;/div&gt;&lt;div&gt;WF V Read - 5&lt;/div&gt;&lt;div&gt;WF H Read - 6&lt;/div&gt;&lt;div&gt;WF V Read - 6&lt;/div&gt;&lt;div&gt;Dipole Read - 1&lt;/div&gt;&lt;div&gt;Dipole Read - 2&lt;/div&gt;&lt;div&gt;Dipole Read - 3&lt;/div&gt;&lt;div&gt;Dipole Read - 4&lt;/div&gt;&lt;div&gt;Dipole Read - 8&lt;/div&gt;&lt;div&gt;Solenoid Read - 1&lt;/div&gt;&lt;div&gt;Solenoid Relay - 1&lt;/div&gt;&lt;div&gt;Solenoid Read - 2&lt;/div&gt;&lt;div&gt;Solenoid Relay - 2&lt;/div&gt;&lt;div&gt;Solenoid Read - 3&lt;/div&gt;&lt;div&gt;Solenoid Relay - 3&lt;/div&gt;&lt;div&gt;&lt;b&gt;&lt;u&gt;Solenoid Relay - 4&lt;/u&gt;&lt;/b&gt;&lt;/div&gt;&lt;div&gt;&lt;b&gt;&lt;u&gt;Solenoid Relay - 5&lt;/u&gt;&lt;/b&gt;&lt;/div&gt;&lt;div&gt;WF H Read - 18&lt;/div&gt;&lt;div&gt;WF V Read - 18&lt;/div&gt;&lt;div&gt;&lt;b&gt;&lt;u&gt;WF H Read - 25&lt;/u&gt;&lt;/b&gt;&lt;/div&gt;&lt;div&gt;&lt;b&gt;&lt;u&gt;WF V Read - 25&lt;/u&gt;&lt;/b&gt;&lt;/div&gt;&lt;div&gt;&lt;b&gt;&lt;u&gt;WF H Read - 24&lt;/u&gt;&lt;/b&gt;&lt;/div&gt;&lt;div&gt;&lt;b&gt;&lt;u&gt;WF V Read - 24&lt;/u&gt;&lt;/b&gt;&lt;/div&gt;&lt;div&gt;&lt;b&gt;&lt;u&gt;WF H Read - 23&lt;/u&gt;&lt;/b&gt;&lt;/div&gt;&lt;div&gt;&lt;b&gt;&lt;u&gt;WF V Read - 23&lt;/u&gt;&lt;/b&gt;&lt;/div&gt;&lt;div&gt;WF H Read - 22&lt;/div&gt;&lt;div&gt;WF V Read - 22&lt;/div&gt;&lt;div&gt;WF H Read - 19&lt;/div&gt;&lt;div&gt;WF V Read - 19&lt;/div&gt;&lt;div&gt;WF H Read - 20&lt;/div&gt;&lt;div&gt;WF V Read - 20&lt;/div&gt;&lt;div&gt;WF H Read - 21&lt;/div&gt;&lt;div&gt;WF V Read - 21&lt;/div&gt;&lt;div&gt;&lt;b&gt;&lt;u&gt;Solenoid Resistance - 6&lt;/u&gt;&lt;/b&gt;&lt;/div&gt;&lt;div&gt;Solenoid Resistance - 7&lt;/div&gt;&lt;div&gt;Solenoid Resistance - 5&lt;/div&gt;&lt;div&gt;Solenoid Resistance - 4&lt;/div&gt;&lt;div&gt;Dipole Resistance - 3&lt;/div&gt;&lt;div&gt;Dipole Resistance - 4&lt;/div&gt;&lt;div&gt;Solenoid Read - 4&lt;/div&gt;&lt;div&gt;Solenoid Read - 5&lt;/div&gt;&lt;div&gt;Solenoid Read - 6&lt;/div&gt;&lt;div&gt;Solenoid Relay - 6&lt;/div&gt;&lt;div&gt;Solenoid Read - 7&lt;/div&gt;&lt;div&gt;Solenoid Relay - 7&lt;/div&gt;&lt;div&gt;Solenoid Read - 9&lt;/div&gt;&lt;div&gt;&lt;b&gt;&lt;u&gt;Solenoid Relay - 9&lt;/u&gt;&lt;/b&gt;&lt;/div&gt;&lt;div&gt;&lt;b&gt;&lt;u&gt;Solenoid Read - 12&lt;/u&gt;&lt;/b&gt;&lt;/div&gt;&lt;div&gt;&lt;b&gt;&lt;u&gt;Solenoid Relay - 12&lt;/u&gt;&lt;/b&gt;&lt;/div&gt;&lt;div&gt;Dipole Resistance - 8&lt;/div&gt;&lt;div&gt;Solenoid Resistance - 9&lt;/div&gt;&lt;div&gt;&lt;b&gt;&lt;u&gt;Solenoid Resistance - 12&lt;/u&gt;&lt;/b&gt;&lt;/div&gt;&lt;div&gt;WF H Read - 7&lt;/div&gt;&lt;div&gt;WF V Read - 7&lt;/div&gt;&lt;div&gt;WF H Read - 11&lt;/div&gt;&lt;div&gt;WF V Read - 11&lt;/div&gt;&lt;div&gt;WF H Read - 12&lt;/div&gt;&lt;div&gt;WF V Read - 12&lt;/div&gt;&lt;div&gt;WF H Read - 13&lt;/div&gt;&lt;div&gt;WF V Read - 13&lt;/div&gt;&lt;div&gt;WF H Read - 14&lt;/div&gt;&lt;div&gt;WF V Read - 14&lt;/div&gt;&lt;div&gt;WF H Read - 15&lt;/div&gt;&lt;div&gt;WF V Read - 15&lt;/div&gt;&lt;div&gt;WF H Read - 16&lt;/div&gt;&lt;div&gt;WF V Read - 16&lt;/div&gt;&lt;div&gt;WF H Read - 17&lt;/div&gt;&lt;div&gt;WF V Read - 17&lt;/div&gt;&lt;div&gt;WF H Read - 8&lt;/div&gt;&lt;div&gt;WF V Read - 8&lt;/div&gt;&lt;div&gt;WF H Read - 9&lt;/div&gt;&lt;div&gt;WF V Read - 9&lt;/div&gt;&lt;div&gt;WF H Read - 10&lt;/div&gt;&lt;div&gt;WF V Read - 10&lt;/div&gt;&lt;div&gt;&lt;b&gt;&lt;u&gt;WF H Read - 26&lt;/u&gt;&lt;/b&gt;&lt;/div&gt;&lt;div&gt;&lt;b&gt;&lt;u&gt;WF V Read - 26&lt;/u&gt;&lt;/b&gt;&lt;/div&gt;&lt;div&gt;&lt;b&gt;&lt;u&gt;WF H Read - 27&lt;/u&gt;&lt;/b&gt;&lt;/div&gt;&lt;div&gt;&lt;b&gt;&lt;u&gt;WF V Read - 27&lt;/u&gt;&lt;/b&gt;&lt;/div&gt;&lt;div&gt;&lt;b&gt;&lt;u&gt;WF H Read - 28&lt;/u&gt;&lt;/b&gt;&lt;/div&gt;&lt;div&gt;&lt;b&gt;&lt;u&gt;WF V Read - 28&lt;/u&gt;&lt;/b&gt;&lt;/div&gt;&lt;div&gt;Solenoid Read - 10&lt;/div&gt;&lt;div&gt;&lt;b&gt;&lt;u&gt;Solenoid Relay - 10&lt;/u&gt;&lt;/b&gt;&lt;/div&gt;&lt;div&gt;Solenoid Read - 11&lt;/div&gt;&lt;div&gt;&lt;b&gt;&lt;u&gt;Solenoid Relay - 11&lt;/u&gt;&lt;/b&gt;&lt;/div&gt;&lt;div&gt;&lt;b&gt;&lt;u&gt;Dipole Read - 9&lt;/u&gt;&lt;/b&gt;&lt;/div&gt;&lt;div&gt;Solenoid Read - 8&lt;/div&gt;&lt;div&gt;&lt;b&gt;&lt;u&gt;Solenoid Relay - 8&lt;/u&gt;&lt;/b&gt;&lt;/div&gt;&lt;div&gt;Solenoid Read - 6A&lt;/div&gt;&lt;div&gt;Solenoid Resistance - 6A&lt;/div&gt;&lt;div&gt;Solenoid Read - 6B&lt;/div&gt;&lt;div&gt;Solenoid Resistance - 6B&lt;/div&gt;&lt;div&gt;Solenoid Resistance -11&lt;/div&gt;&lt;div&gt;Solenoid Resistance -10&lt;/div&gt;" style="text;align=left;verticalAlign=middle;spacingLeft=4;spacingRight=4;overflow=hidden;points=[[0,0.5],[1,0.5]];portConstraint=eastwest;rotatable=0;whiteSpace=wrap;html=1;" parent="lW4t6R7ozUzYQwVeIEWx-14" vertex="1">
          <mxGeometry y="30" width="160" height="1510" as="geometry" />
        </mxCell>
        <mxCell id="lW4t6R7ozUzYQwVeIEWx-24" value="MagSP (82)" style="swimlane;fontStyle=0;childLayout=stackLayout;horizontal=1;startSize=30;horizontalStack=0;resizeParent=1;resizeParentMax=0;resizeLast=0;collapsible=1;marginBottom=0;whiteSpace=wrap;html=1;fillColor=#dae8fc;strokeColor=#6c8ebf;" parent="WIyWlLk6GJQsqaUBKTNV-1" vertex="1">
          <mxGeometry x="430" y="620" width="140" height="1240" as="geometry">
            <mxRectangle x="430" y="620" width="60" height="30" as="alternateBounds" />
          </mxGeometry>
        </mxCell>
        <mxCell id="lW4t6R7ozUzYQwVeIEWx-25" value="&lt;div&gt;Time_Stamp&lt;/div&gt;&lt;div&gt;Time_Stamp&lt;/div&gt;&lt;div&gt;Time_Stamp_ms&lt;/div&gt;&lt;div&gt;Dipole SP - 1&lt;/div&gt;&lt;div&gt;Dipole SP - 2&lt;/div&gt;&lt;div&gt;Dipole SP - 3&lt;/div&gt;&lt;div&gt;Dipole SP - 4&lt;/div&gt;&lt;div&gt;Dipole SP - 5&lt;/div&gt;&lt;div&gt;Dipole SP - 6&lt;/div&gt;&lt;div&gt;Dipole SP - 7&lt;/div&gt;&lt;div&gt;Dipole SP - 8&lt;/div&gt;&lt;div&gt;&lt;b&gt;&lt;u&gt;Dipole SP - 9&lt;/u&gt;&lt;/b&gt;&lt;/div&gt;&lt;div&gt;&lt;b&gt;&lt;u&gt;Dipole SP - 10&lt;/u&gt;&lt;/b&gt;&lt;/div&gt;&lt;div&gt;WF H SP - 1&lt;/div&gt;&lt;div&gt;WF H SP - 2&lt;/div&gt;&lt;div&gt;WF H SP - 3&lt;/div&gt;&lt;div&gt;WF H SP - 4&lt;/div&gt;&lt;div&gt;WF H SP - 5&lt;/div&gt;&lt;div&gt;WF H SP - 6&lt;/div&gt;&lt;div&gt;WF H SP - 7&lt;/div&gt;&lt;div&gt;WF H SP - 8&lt;/div&gt;&lt;div&gt;WF H SP - 9&lt;/div&gt;&lt;div&gt;WF H SP - 10&lt;/div&gt;&lt;div&gt;WF H SP - 11&lt;/div&gt;&lt;div&gt;WF H SP - 12&lt;/div&gt;&lt;div&gt;WF H SP - 13&lt;/div&gt;&lt;div&gt;WF H SP - 14&lt;/div&gt;&lt;div&gt;WF H SP - 15&lt;/div&gt;&lt;div&gt;WF H SP - 16&lt;/div&gt;&lt;div&gt;WF H SP - 17&lt;/div&gt;&lt;div&gt;WF H SP - 18&lt;/div&gt;&lt;div&gt;WF H SP - 19&lt;/div&gt;&lt;div&gt;WF H SP - 20&lt;/div&gt;&lt;div&gt;WF H SP - 21&lt;/div&gt;&lt;div&gt;WF H SP - 22&lt;/div&gt;&lt;div&gt;&lt;b&gt;&lt;u&gt;WF H SP - 23&lt;/u&gt;&lt;/b&gt;&lt;/div&gt;&lt;div&gt;&lt;b&gt;&lt;u&gt;WF H SP - 24&lt;/u&gt;&lt;/b&gt;&lt;/div&gt;&lt;div&gt;&lt;b&gt;&lt;u&gt;WF H SP - 25&lt;/u&gt;&lt;/b&gt;&lt;/div&gt;&lt;div&gt;&lt;b&gt;&lt;u&gt;WF H SP - 26&lt;/u&gt;&lt;/b&gt;&lt;/div&gt;&lt;div&gt;&lt;b&gt;&lt;u&gt;WF H SP - 27&lt;/u&gt;&lt;/b&gt;&lt;/div&gt;&lt;div&gt;&lt;b&gt;&lt;u&gt;WF H SP - 28&lt;/u&gt;&lt;/b&gt;&lt;/div&gt;&lt;div&gt;WF V SP - 1&lt;/div&gt;&lt;div&gt;WF V SP - 2&lt;/div&gt;&lt;div&gt;WF V SP - 3&lt;/div&gt;&lt;div&gt;WF V SP - 4&lt;/div&gt;&lt;div&gt;WF V SP - 5&lt;/div&gt;&lt;div&gt;WF V SP - 6&lt;/div&gt;&lt;div&gt;WF V SP - 7&lt;/div&gt;&lt;div&gt;WF V SP - 8&lt;/div&gt;&lt;div&gt;WF V SP - 9&lt;/div&gt;&lt;div&gt;WF V SP - 10&lt;/div&gt;&lt;div&gt;WF V SP - 11&lt;/div&gt;&lt;div&gt;WF V SP - 12&lt;/div&gt;&lt;div&gt;WF V SP - 13&lt;/div&gt;&lt;div&gt;WF V SP - 14&lt;/div&gt;&lt;div&gt;WF V SP - 15&lt;/div&gt;&lt;div&gt;WF V SP - 16&lt;/div&gt;&lt;div&gt;WF V SP - 17&lt;/div&gt;&lt;div&gt;WF V SP - 18&lt;/div&gt;&lt;div&gt;WF V SP - 19&lt;/div&gt;&lt;div&gt;WF V SP - 20&lt;/div&gt;&lt;div&gt;WF V SP - 21&lt;/div&gt;&lt;div&gt;WF V SP - 22&lt;/div&gt;&lt;div&gt;&lt;b&gt;&lt;u&gt;WF V SP - 23&lt;/u&gt;&lt;/b&gt;&lt;/div&gt;&lt;div&gt;&lt;b&gt;&lt;u&gt;WF V SP - 24&lt;/u&gt;&lt;/b&gt;&lt;/div&gt;&lt;div&gt;&lt;b&gt;&lt;u&gt;WF V SP - 25&lt;/u&gt;&lt;/b&gt;&lt;/div&gt;&lt;div&gt;&lt;b&gt;&lt;u&gt;WF V SP - 26&lt;/u&gt;&lt;/b&gt;&lt;/div&gt;&lt;div&gt;&lt;b&gt;&lt;u&gt;WF V SP - 27&lt;/u&gt;&lt;/b&gt;&lt;/div&gt;&lt;div&gt;&lt;b&gt;&lt;u&gt;WF V SP - 28&lt;/u&gt;&lt;/b&gt;&lt;/div&gt;&lt;div&gt;Solenoid SP - 1&lt;/div&gt;&lt;div&gt;Solenoid SP - 2&lt;/div&gt;&lt;div&gt;Solenoid SP - 3&lt;/div&gt;&lt;div&gt;Solenoid SP - 4&lt;/div&gt;&lt;div&gt;Solenoid SP - 5&lt;/div&gt;&lt;div&gt;&lt;b&gt;&lt;u&gt;Solenoid SP - 6&lt;/u&gt;&lt;/b&gt;&lt;/div&gt;&lt;div&gt;Solenoid SP - 7&lt;/div&gt;&lt;div&gt;Solenoid SP - 8&lt;/div&gt;&lt;div&gt;Solenoid SP - 9&lt;/div&gt;&lt;div&gt;Solenoid SP - 10&lt;/div&gt;&lt;div&gt;Solenoid SP - 11&lt;/div&gt;&lt;div&gt;&lt;b&gt;&lt;u&gt;Solenoid SP - 12&lt;/u&gt;&lt;/b&gt;&lt;/div&gt;&lt;div&gt;Solenoid SP - 6A&lt;/div&gt;&lt;div&gt;Solenoid SP - 6B&lt;/div&gt;" style="text;strokeColor=none;fillColor=none;align=left;verticalAlign=middle;spacingLeft=4;spacingRight=4;overflow=hidden;points=[[0,0.5],[1,0.5]];portConstraint=eastwest;rotatable=0;whiteSpace=wrap;html=1;" parent="lW4t6R7ozUzYQwVeIEWx-24" vertex="1">
          <mxGeometry y="30" width="140" height="1210" as="geometry" />
        </mxCell>
        <mxCell id="cLdxjcpRwKSDlAr2vYdq-2" value="main_tetrode (16)" style="swimlane;fontStyle=0;childLayout=stackLayout;horizontal=1;startSize=30;horizontalStack=0;resizeParent=1;resizeParentMax=0;resizeLast=0;collapsible=1;marginBottom=0;whiteSpace=wrap;html=1;fillColor=#dae8fc;strokeColor=#6c8ebf;" vertex="1" parent="WIyWlLk6GJQsqaUBKTNV-1">
          <mxGeometry x="650" y="320" width="140" height="290" as="geometry" />
        </mxCell>
        <mxCell id="cLdxjcpRwKSDlAr2vYdq-3" value="&lt;div&gt;Heater current&lt;/div&gt;&lt;div&gt;Time_Stamp&lt;/div&gt;&lt;div&gt;Time_Stamp_ms&lt;/div&gt;&lt;div&gt;Anode water flow&lt;/div&gt;&lt;div&gt;G2 water flow&lt;/div&gt;&lt;div&gt;load water flow&lt;/div&gt;&lt;div&gt;Anode water temp&lt;/div&gt;&lt;div&gt;G2 water temp&lt;/div&gt;&lt;div&gt;load water temp&lt;/div&gt;&lt;div&gt;anode voltage&lt;/div&gt;&lt;div&gt;anode Current&lt;/div&gt;&lt;div&gt;screen Voltage&lt;/div&gt;&lt;div&gt;Screen current&lt;/div&gt;&lt;div&gt;G2 voltage&lt;/div&gt;&lt;div&gt;G2 current&lt;/div&gt;&lt;div&gt;Heater voltage&lt;/div&gt;&lt;div&gt;Heater current&lt;/div&gt;" style="text;strokeColor=none;fillColor=none;align=left;verticalAlign=middle;spacingLeft=4;spacingRight=4;overflow=hidden;points=[[0,0.5],[1,0.5]];portConstraint=eastwest;rotatable=0;whiteSpace=wrap;html=1;" vertex="1" parent="cLdxjcpRwKSDlAr2vYdq-2">
          <mxGeometry y="30" width="140" height="260" as="geometry" />
        </mxCell>
        <mxCell id="cLdxjcpRwKSDlAr2vYdq-6" value="RadioFreq (6)" style="swimlane;fontStyle=0;childLayout=stackLayout;horizontal=1;startSize=30;horizontalStack=0;resizeParent=1;resizeParentMax=0;resizeLast=0;collapsible=1;marginBottom=0;whiteSpace=wrap;html=1;fillColor=#dae8fc;strokeColor=#6c8ebf;" vertex="1" parent="WIyWlLk6GJQsqaUBKTNV-1">
          <mxGeometry x="650" y="630" width="140" height="160" as="geometry" />
        </mxCell>
        <mxCell id="cLdxjcpRwKSDlAr2vYdq-7" value="&lt;div&gt;BH Intermediate Freq&lt;/div&gt;&lt;div&gt;Time_Stamp&lt;/div&gt;&lt;div&gt;Time_Stamp_ms&lt;/div&gt;&lt;div&gt;BH Phase Request&lt;/div&gt;&lt;div&gt;Cu Gun Phase Request&lt;/div&gt;&lt;div&gt;Cu Gun Intermediate Freq&lt;/div&gt;&lt;div&gt;BH Intermediate Freq&lt;/div&gt;" style="text;strokeColor=none;fillColor=none;align=left;verticalAlign=middle;spacingLeft=4;spacingRight=4;overflow=hidden;points=[[0,0.5],[1,0.5]];portConstraint=eastwest;rotatable=0;whiteSpace=wrap;html=1;" vertex="1" parent="cLdxjcpRwKSDlAr2vYdq-6">
          <mxGeometry y="30" width="140" height="130" as="geometry" />
        </mxCell>
        <mxCell id="cLdxjcpRwKSDlAr2vYdq-10" value="SpaceUsed (8)" style="swimlane;fontStyle=0;childLayout=stackLayout;horizontal=1;startSize=30;horizontalStack=0;resizeParent=1;resizeParentMax=0;resizeLast=0;collapsible=1;marginBottom=0;whiteSpace=wrap;html=1;fillColor=#e1d5e7;strokeColor=#9673a6;" vertex="1" parent="WIyWlLk6GJQsqaUBKTNV-1">
          <mxGeometry x="650" y="130" width="140" height="170" as="geometry" />
        </mxCell>
        <mxCell id="cLdxjcpRwKSDlAr2vYdq-11" value="&lt;div&gt;SpaceDate&lt;/div&gt;&lt;div&gt;database_name&lt;/div&gt;&lt;div&gt;database_size&lt;/div&gt;&lt;div&gt;unallocated_space&lt;/div&gt;&lt;div&gt;reserved&lt;/div&gt;&lt;div&gt;data&lt;/div&gt;&lt;div&gt;index_size&lt;/div&gt;&lt;div&gt;unused&lt;/div&gt;" style="text;strokeColor=none;fillColor=none;align=left;verticalAlign=middle;spacingLeft=4;spacingRight=4;overflow=hidden;points=[[0,0.5],[1,0.5]];portConstraint=eastwest;rotatable=0;whiteSpace=wrap;html=1;" vertex="1" parent="cLdxjcpRwKSDlAr2vYdq-10">
          <mxGeometry y="30" width="140" height="140" as="geometry" />
        </mxCell>
        <mxCell id="cLdxjcpRwKSDlAr2vYdq-14" value="Temperatures (92)" style="swimlane;fontStyle=0;childLayout=stackLayout;horizontal=1;startSize=30;horizontalStack=0;resizeParent=1;resizeParentMax=0;resizeLast=0;collapsible=1;marginBottom=0;whiteSpace=wrap;html=1;fillColor=#dae8fc;strokeColor=#6c8ebf;" vertex="1" parent="WIyWlLk6GJQsqaUBKTNV-1">
          <mxGeometry x="650" y="810" width="240" height="1380" as="geometry">
            <mxRectangle x="650" y="1190" width="140" height="30" as="alternateBounds" />
          </mxGeometry>
        </mxCell>
        <mxCell id="cLdxjcpRwKSDlAr2vYdq-15" value="&lt;div&gt;Time_Stamp&lt;/div&gt;&lt;div&gt;Time_Stamp&lt;/div&gt;&lt;div&gt;Time_Stamp_ms&lt;/div&gt;&lt;div&gt;&lt;b&gt;&lt;u&gt;Recirc Bypass Dump WC Return&lt;/u&gt;&lt;/b&gt;&lt;/div&gt;&lt;div&gt;&lt;b&gt;&lt;u&gt;Recirc Bypass Dump WC Supply&lt;/u&gt;&lt;/b&gt;&lt;/div&gt;&lt;div&gt;DBA Dump WC Return&lt;/div&gt;&lt;div&gt;DBA Dump WC Supply&lt;/div&gt;&lt;div&gt;&lt;b&gt;&lt;u&gt;Recirc Bellow 1 Dn&lt;/u&gt;&lt;/b&gt;&lt;/div&gt;&lt;div&gt;Dipole 3&lt;/div&gt;&lt;div&gt;Dipole 4&lt;/div&gt;&lt;div&gt;Dipole 5&lt;/div&gt;&lt;div&gt;Dipole 6&lt;/div&gt;&lt;div&gt;Dipole 7&lt;/div&gt;&lt;div&gt;&lt;b&gt;&lt;u&gt;Recirc Bellow 1 Up&lt;/u&gt;&lt;/b&gt;&lt;/div&gt;&lt;div&gt;&lt;b&gt;&lt;u&gt;Recirc General Purpose&lt;/u&gt;&lt;/b&gt;&lt;/div&gt;&lt;div&gt;&lt;b&gt;&lt;u&gt;Recirc Bellow 2 Dn&lt;/u&gt;&lt;/b&gt;&lt;/div&gt;&lt;div&gt;&lt;b&gt;&lt;u&gt;Recirc Bellow 3 Up&lt;/u&gt;&lt;/b&gt;&lt;/div&gt;&lt;div&gt;&lt;b&gt;&lt;u&gt;Recirc Gate Valve Up?&lt;/u&gt;&lt;/b&gt;&lt;/div&gt;&lt;div&gt;&lt;b&gt;&lt;u&gt;Recirc Gate Valve Dn?&lt;/u&gt;&lt;/b&gt;&lt;/div&gt;&lt;div&gt;Solenoid 4&lt;/div&gt;&lt;div&gt;Solenoid 5&lt;/div&gt;&lt;div&gt;SRF Tuner&lt;/div&gt;&lt;div&gt;Coupler Shoulder&lt;/div&gt;&lt;div&gt;&lt;b&gt;&lt;u&gt;Bypass Drift Tube&lt;/u&gt;&lt;/b&gt;&lt;/div&gt;&lt;div&gt;BH OC&lt;/div&gt;&lt;div&gt;&lt;b&gt;&lt;u&gt;Transport Collimator&lt;/u&gt;&lt;/b&gt;&lt;/div&gt;&lt;div&gt;&lt;b&gt;&lt;u&gt;DBA aperture&lt;/u&gt;&lt;/b&gt;&lt;/div&gt;&lt;div&gt;Cu Gun Body&lt;/div&gt;&lt;div&gt;&lt;b&gt;&lt;u&gt;Dipole 8 Up&lt;/u&gt;&lt;/b&gt;&lt;/div&gt;&lt;div&gt;&lt;b&gt;&lt;u&gt;UTA Bellow 1 Upstream&lt;/u&gt;&lt;/b&gt;&lt;/div&gt;&lt;div&gt;&lt;b&gt;&lt;u&gt;UTA Bellow 1 Downstream&lt;/u&gt;&lt;/b&gt;&lt;/div&gt;&lt;div&gt;&lt;b&gt;&lt;u&gt;UTA Barrel Bottom&lt;/u&gt;&lt;/b&gt;&lt;/div&gt;&lt;div&gt;&lt;b&gt;&lt;u&gt;Dipole 8 Dn&lt;/u&gt;&lt;/b&gt;&lt;/div&gt;&lt;div&gt;&lt;b&gt;&lt;u&gt;UTA Bellow 2 Upstream&lt;/u&gt;&lt;/b&gt;&lt;/div&gt;&lt;div&gt;&lt;b&gt;&lt;u&gt;UTA Bellow 2 Downstream&lt;/u&gt;&lt;/b&gt;&lt;/div&gt;&lt;div&gt;&lt;b&gt;&lt;u&gt;UTA Barrel Mid&lt;/u&gt;&lt;/b&gt;&lt;/div&gt;&lt;div&gt;DBA Gate Valve Up&lt;/div&gt;&lt;div&gt;&lt;b&gt;&lt;u&gt;Solenoid 8&lt;/u&gt;&lt;/b&gt;&lt;/div&gt;&lt;div&gt;&lt;b&gt;&lt;u&gt;Solenoid 9&lt;/u&gt;&lt;/b&gt;&lt;/div&gt;&lt;div&gt;&lt;b&gt;&lt;u&gt;Transport Drift Tube&lt;/u&gt;&lt;/b&gt;&lt;/div&gt;&lt;div&gt;&lt;b&gt;&lt;u&gt;Recirc Bypass Glass Break Up&lt;/u&gt;&lt;/b&gt;&lt;/div&gt;&lt;div&gt;&lt;b&gt;&lt;u&gt;Transport General Purpose&lt;/u&gt;&lt;/b&gt;&lt;/div&gt;&lt;div&gt;WF 10&lt;/div&gt;&lt;div&gt;&lt;b&gt;&lt;u&gt;Loop Diagnostic Chamber&lt;/u&gt;&lt;/b&gt;&lt;/div&gt;&lt;div&gt;&lt;b&gt;&lt;u&gt;Recirculator Bypass Tube&lt;/u&gt;&lt;/b&gt;&lt;/div&gt;&lt;div&gt;&lt;b&gt;&lt;u&gt;Recirculator Matching Tube&lt;/u&gt;&lt;/b&gt;&lt;/div&gt;&lt;div&gt;&lt;b&gt;&lt;u&gt;Recirculating Arc Bellows Downstream&lt;/u&gt;&lt;/b&gt;&lt;/div&gt;&lt;div&gt;&lt;b&gt;&lt;u&gt;Recirculating Arc Bellows Upstream&lt;/u&gt;&lt;/b&gt;&lt;/div&gt;&lt;div&gt;Bypass Bellows Downstream&lt;/div&gt;&lt;div&gt;Bypass Dump Bellows Upstream&lt;/div&gt;&lt;div&gt;Recirculating Arc Bypass Tube&lt;/div&gt;&lt;div&gt;Diagnostic Chamber&lt;/div&gt;&lt;div&gt;&lt;b&gt;&lt;u&gt;DBA Pipe&lt;/u&gt;&lt;/b&gt;&lt;/div&gt;&lt;div&gt;&lt;b&gt;&lt;u&gt;Tuner Gate Valve Upstream&lt;/u&gt;&lt;/b&gt;&lt;/div&gt;&lt;div&gt;Solenoid 8 Upstream&lt;/div&gt;&lt;div&gt;Target Chamber Corner&lt;/div&gt;&lt;div&gt;Transport Tube 1&lt;/div&gt;&lt;div&gt;Target Bellows Downstream&lt;/div&gt;&lt;div&gt;Solenoid 9 Downstream&lt;/div&gt;&lt;div&gt;Transport Gate Valve Upstream&lt;/div&gt;&lt;div&gt;Transport Window Frame 19&lt;/div&gt;&lt;div&gt;Solenoid 10 Upstream&lt;/div&gt;&lt;div&gt;&lt;b&gt;&lt;u&gt;Transport End&lt;/u&gt;&lt;/b&gt;&lt;/div&gt;&lt;div&gt;&lt;b&gt;&lt;u&gt;Transport Bellows Downstream&lt;/u&gt;&lt;/b&gt;&lt;/div&gt;&lt;div&gt;Transport Tube 2&lt;/div&gt;&lt;div&gt;Target Bellows Upstream&lt;/div&gt;&lt;div&gt;Target Collimator&lt;/div&gt;&lt;div&gt;Glass Break Upstream&lt;/div&gt;&lt;div&gt;Glass Break Downstream&lt;/div&gt;&lt;div&gt;Barrel Bottom&lt;/div&gt;&lt;div&gt;&lt;b&gt;&lt;u&gt;Barrel Mid&lt;/u&gt;&lt;/b&gt;&lt;/div&gt;&lt;div&gt;Barrel Top&lt;/div&gt;&lt;div&gt;Target Strike Plate&lt;/div&gt;&lt;div&gt;DBA Bellows Downstream&lt;/div&gt;&lt;div&gt;Recirc Arc Bellows Downstream&lt;/div&gt;&lt;div&gt;Recirc Arc Bellows Upstream&lt;/div&gt;&lt;div&gt;Recirc Arc Bypass Dump Return&lt;/div&gt;&lt;div&gt;Recirc Arc Bypass Dump Supply&lt;/div&gt;&lt;div&gt;Recirc Arc Matching Tube&lt;/div&gt;&lt;div&gt;Recirc Gate Valve Up&lt;/div&gt;&lt;div&gt;Recirc Gate Valve Dn&lt;/div&gt;&lt;div&gt;DBA&amp;nbsp; Aperture Pipe&lt;/div&gt;&lt;div&gt;Solenoid 11 Downstream&lt;/div&gt;&lt;div&gt;Transport End Bellows Downstream&lt;/div&gt;&lt;div&gt;Target Chamber Bottom&lt;/div&gt;&lt;div&gt;Target Chamber Top&lt;/div&gt;&lt;div&gt;Target Chamber Right&lt;/div&gt;&lt;div&gt;Target Chamber Left&lt;/div&gt;&lt;div&gt;Cryo Cooling Compressor Upstream&lt;/div&gt;&lt;div&gt;Cryo Cooling Compressor Downstream&lt;/div&gt;&lt;div&gt;Bypass Dump Bellows Downstream&lt;/div&gt;&lt;div&gt;Cooling Loop Hot&lt;/div&gt;&lt;div&gt;Cooling Loop Cold&lt;/div&gt;" style="text;strokeColor=none;fillColor=none;align=left;verticalAlign=middle;spacingLeft=4;spacingRight=4;overflow=hidden;points=[[0,0.5],[1,0.5]];portConstraint=eastwest;rotatable=0;whiteSpace=wrap;html=1;" vertex="1" parent="cLdxjcpRwKSDlAr2vYdq-14">
          <mxGeometry y="30" width="240" height="1350" as="geometry" />
        </mxCell>
        <mxCell id="cLdxjcpRwKSDlAr2vYdq-18" value="Vacuum (26)" style="swimlane;fontStyle=0;childLayout=stackLayout;horizontal=1;startSize=30;horizontalStack=0;resizeParent=1;resizeParentMax=0;resizeLast=0;collapsible=1;marginBottom=0;whiteSpace=wrap;html=1;fillColor=#dae8fc;strokeColor=#6c8ebf;" vertex="1" parent="WIyWlLk6GJQsqaUBKTNV-1">
          <mxGeometry x="840" y="130" width="180" height="420" as="geometry" />
        </mxCell>
        <mxCell id="cLdxjcpRwKSDlAr2vYdq-19" value="&lt;div&gt;Time_Stamp&lt;/div&gt;&lt;div&gt;Time_Stamp_ms&lt;/div&gt;&lt;div&gt;&lt;b&gt;&lt;u&gt;Recirc Vac&lt;/u&gt;&lt;/b&gt;&lt;/div&gt;&lt;div&gt;SRF Vac&lt;/div&gt;&lt;div&gt;&lt;b&gt;&lt;u&gt;Estation Vac&lt;/u&gt;&lt;/b&gt;&lt;/div&gt;&lt;div&gt;Insulating Vac&lt;/div&gt;&lt;div&gt;&lt;b&gt;&lt;u&gt;Gun Cross Vac&lt;/u&gt;&lt;/b&gt;&lt;/div&gt;&lt;div&gt;&lt;b&gt;&lt;u&gt;15 Deg Bend Vac&lt;/u&gt;&lt;/b&gt;&lt;/div&gt;&lt;div&gt;&lt;b&gt;&lt;u&gt;Gun Vac&lt;/u&gt;&lt;/b&gt;&lt;/div&gt;&lt;div&gt;Turbo Pump Vac&lt;/div&gt;&lt;div&gt;&lt;b&gt;&lt;u&gt;Transport Turbo Pump 1&lt;/u&gt;&lt;/b&gt;&lt;/div&gt;&lt;div&gt;&lt;b&gt;&lt;u&gt;Transport Turbo Pump 2&lt;/u&gt;&lt;/b&gt;&lt;/div&gt;&lt;div&gt;&lt;b&gt;&lt;u&gt;Transport 1 Beam Vacuum&lt;/u&gt;&lt;/b&gt;&lt;/div&gt;&lt;div&gt;&lt;b&gt;&lt;u&gt;Target Vacuum&lt;/u&gt;&lt;/b&gt;&lt;/div&gt;&lt;div&gt;&lt;b&gt;&lt;u&gt;Transport 2 Beam Vacuum&lt;/u&gt;&lt;/b&gt;&lt;/div&gt;&lt;div&gt;Cross Ion Vac&lt;/div&gt;&lt;div&gt;Gun Ion Vac&lt;/div&gt;&lt;div&gt;Transport 1 Ion Vac&lt;/div&gt;&lt;div&gt;Transport 2 Ion Vac&lt;/div&gt;&lt;div&gt;Transport 1 Turbo Vac&lt;/div&gt;&lt;div&gt;Transport 2 Turbo Vac&lt;/div&gt;&lt;div&gt;Target Ion Vac&lt;/div&gt;&lt;div&gt;Recirc Arc Ion Vac&lt;/div&gt;&lt;div&gt;Recirc Arc Turbo Vac&lt;/div&gt;&lt;div&gt;Injector Turbo Vac&lt;/div&gt;&lt;div&gt;Target Turbo Vac&lt;/div&gt;" style="text;strokeColor=none;fillColor=none;align=left;verticalAlign=middle;spacingLeft=4;spacingRight=4;overflow=hidden;points=[[0,0.5],[1,0.5]];portConstraint=eastwest;rotatable=0;whiteSpace=wrap;html=1;" vertex="1" parent="cLdxjcpRwKSDlAr2vYdq-18">
          <mxGeometry y="30" width="180" height="390" as="geometry" />
        </mxCell>
        <mxCell id="cLdxjcpRwKSDlAr2vYdq-23" value="NULLS (134)" style="swimlane;fontStyle=0;childLayout=stackLayout;horizontal=1;startSize=30;horizontalStack=0;resizeParent=1;resizeParentMax=0;resizeLast=0;collapsible=1;marginBottom=0;whiteSpace=wrap;html=1;fillColor=#ffe6cc;strokeColor=#d79b00;" vertex="1" parent="WIyWlLk6GJQsqaUBKTNV-1">
          <mxGeometry x="-190" y="1530" width="360" height="2070" as="geometry" />
        </mxCell>
        <mxCell id="cLdxjcpRwKSDlAr2vYdq-24" value="&lt;div&gt;ALARMHISTORY&lt;span style=&quot;white-space:pre&quot;&gt;&#x9;&lt;/span&gt;Al_Norm_Time&lt;/div&gt;&lt;div&gt;ALARMHISTORY&lt;span style=&quot;white-space:pre&quot;&gt;&#x9;&lt;/span&gt;Al_Norm_Time_ms&lt;/div&gt;&lt;div&gt;ALARMHISTORY&lt;span style=&quot;white-space:pre&quot;&gt;&#x9;&lt;/span&gt;Al_Ack_Time&lt;/div&gt;&lt;div&gt;ALARMHISTORY&lt;span style=&quot;white-space:pre&quot;&gt;&#x9;&lt;/span&gt;Al_Ack_Time_ms&lt;/div&gt;&lt;div&gt;ALARMHISTORY&lt;span style=&quot;white-space:pre&quot;&gt;&#x9;&lt;/span&gt;Last_Update&lt;/div&gt;&lt;div&gt;ALARMHISTORY&lt;span style=&quot;white-space:pre&quot;&gt;&#x9;&lt;/span&gt;Last_Update_ms&lt;/div&gt;&lt;div&gt;EVENTHISTORY&lt;span style=&quot;white-space:pre&quot;&gt;&#x9;&lt;/span&gt;Ev_Type&lt;/div&gt;&lt;div&gt;EVENTHISTORY&lt;span style=&quot;white-space:pre&quot;&gt;&#x9;&lt;/span&gt;Ev_Time&lt;/div&gt;&lt;div&gt;EVENTHISTORY&lt;span style=&quot;white-space:pre&quot;&gt;&#x9;&lt;/span&gt;Ev_Time_ms&lt;/div&gt;&lt;div&gt;EVENTHISTORY&lt;span style=&quot;white-space:pre&quot;&gt;&#x9;&lt;/span&gt;Ev_Info&lt;/div&gt;&lt;div&gt;EVENTHISTORY&lt;span style=&quot;white-space:pre&quot;&gt;&#x9;&lt;/span&gt;Ev_User&lt;/div&gt;&lt;div&gt;EVENTHISTORY&lt;span style=&quot;white-space:pre&quot;&gt;&#x9;&lt;/span&gt;Ev_User_Full&lt;/div&gt;&lt;div&gt;EVENTHISTORY&lt;span style=&quot;white-space:pre&quot;&gt;&#x9;&lt;/span&gt;Ev_Message&lt;/div&gt;&lt;div&gt;EVENTHISTORY&lt;span style=&quot;white-space:pre&quot;&gt;&#x9;&lt;/span&gt;Ev_Value&lt;/div&gt;&lt;div&gt;EVENTHISTORY&lt;span style=&quot;white-space:pre&quot;&gt;&#x9;&lt;/span&gt;Ev_Prev_Value&lt;/div&gt;&lt;div&gt;EVENTHISTORY&lt;span style=&quot;white-space:pre&quot;&gt;&#x9;&lt;/span&gt;Ev_Station&lt;/div&gt;&lt;div&gt;EVENTHISTORY&lt;span style=&quot;white-space:pre&quot;&gt;&#x9;&lt;/span&gt;Ev_Comment&lt;/div&gt;&lt;div&gt;EVENTHISTORY&lt;span style=&quot;white-space:pre&quot;&gt;&#x9;&lt;/span&gt;Ev_Source&lt;/div&gt;&lt;div&gt;EVENTHISTORY&lt;span style=&quot;white-space:pre&quot;&gt;&#x9;&lt;/span&gt;Ev_Deleted&lt;/div&gt;&lt;div&gt;EVENTHISTORY&lt;span style=&quot;white-space:pre&quot;&gt;&#x9;&lt;/span&gt;Last_Update&lt;/div&gt;&lt;div&gt;EVENTHISTORY&lt;span style=&quot;white-space:pre&quot;&gt;&#x9;&lt;/span&gt;Last_Update_ms&lt;/div&gt;&lt;div&gt;Temperatures&lt;span style=&quot;white-space:pre&quot;&gt;&#x9;&lt;/span&gt;Recirc Bypass Dump WC Return&lt;/div&gt;&lt;div&gt;Temperatures&lt;span style=&quot;white-space:pre&quot;&gt;&#x9;&lt;/span&gt;Recirc Bypass Dump WC Supply&lt;/div&gt;&lt;div&gt;Temperatures&lt;span style=&quot;white-space:pre&quot;&gt;&#x9;&lt;/span&gt;Recirc Bellow 1 Dn&lt;/div&gt;&lt;div&gt;Temperatures&lt;span style=&quot;white-space:pre&quot;&gt;&#x9;&lt;/span&gt;Recirc Bellow 1 Up&lt;/div&gt;&lt;div&gt;Temperatures&lt;span style=&quot;white-space:pre&quot;&gt;&#x9;&lt;/span&gt;Recirc General Purpose&lt;/div&gt;&lt;div&gt;Temperatures&lt;span style=&quot;white-space:pre&quot;&gt;&#x9;&lt;/span&gt;Recirc Bellow 2 Dn&lt;/div&gt;&lt;div&gt;Temperatures&lt;span style=&quot;white-space:pre&quot;&gt;&#x9;&lt;/span&gt;Recirc Bellow 3 Up&lt;/div&gt;&lt;div&gt;Temperatures&lt;span style=&quot;white-space:pre&quot;&gt;&#x9;&lt;/span&gt;Recirc Gate Valve Up?&lt;/div&gt;&lt;div&gt;Temperatures&lt;span style=&quot;white-space:pre&quot;&gt;&#x9;&lt;/span&gt;Recirc Gate Valve Dn?&lt;/div&gt;&lt;div&gt;Temperatures&lt;span style=&quot;white-space:pre&quot;&gt;&#x9;&lt;/span&gt;Bypass Drift Tube&lt;/div&gt;&lt;div&gt;Temperatures&lt;span style=&quot;white-space:pre&quot;&gt;&#x9;&lt;/span&gt;Transport Collimator&lt;/div&gt;&lt;div&gt;Temperatures&lt;span style=&quot;white-space:pre&quot;&gt;&#x9;&lt;/span&gt;DBA aperture&lt;/div&gt;&lt;div&gt;Temperatures&lt;span style=&quot;white-space:pre&quot;&gt;&#x9;&lt;/span&gt;Dipole 8 Up&lt;/div&gt;&lt;div&gt;Temperatures&lt;span style=&quot;white-space:pre&quot;&gt;&#x9;&lt;/span&gt;UTA Bellow 1 Upstream&lt;/div&gt;&lt;div&gt;Temperatures&lt;span style=&quot;white-space:pre&quot;&gt;&#x9;&lt;/span&gt;UTA Bellow 1 Downstream&lt;/div&gt;&lt;div&gt;Temperatures&lt;span style=&quot;white-space:pre&quot;&gt;&#x9;&lt;/span&gt;UTA Barrel Bottom&lt;/div&gt;&lt;div&gt;Temperatures&lt;span style=&quot;white-space:pre&quot;&gt;&#x9;&lt;/span&gt;Dipole 8 Dn&lt;/div&gt;&lt;div&gt;Temperatures&lt;span style=&quot;white-space:pre&quot;&gt;&#x9;&lt;/span&gt;UTA Bellow 2 Upstream&lt;/div&gt;&lt;div&gt;Temperatures&lt;span style=&quot;white-space:pre&quot;&gt;&#x9;&lt;/span&gt;UTA Bellow 2 Downstream&lt;/div&gt;&lt;div&gt;Temperatures&lt;span style=&quot;white-space:pre&quot;&gt;&#x9;&lt;/span&gt;UTA Barrel Mid&lt;/div&gt;&lt;div&gt;Temperatures&lt;span style=&quot;white-space:pre&quot;&gt;&#x9;&lt;/span&gt;Solenoid 8&lt;/div&gt;&lt;div&gt;Temperatures&lt;span style=&quot;white-space:pre&quot;&gt;&#x9;&lt;/span&gt;Solenoid 9&lt;/div&gt;&lt;div&gt;Temperatures&lt;span style=&quot;white-space:pre&quot;&gt;&#x9;&lt;/span&gt;Transport Drift Tube&lt;/div&gt;&lt;div&gt;Temperatures&lt;span style=&quot;white-space:pre&quot;&gt;&#x9;&lt;/span&gt;Recirc Bypass Glass Break Up&lt;/div&gt;&lt;div&gt;Temperatures&lt;span style=&quot;white-space:pre&quot;&gt;&#x9;&lt;/span&gt;Transport General Purpose&lt;/div&gt;&lt;div&gt;Temperatures&lt;span style=&quot;white-space:pre&quot;&gt;&#x9;&lt;/span&gt;Loop Diagnostic Chamber&lt;/div&gt;&lt;div&gt;Temperatures&lt;span style=&quot;white-space:pre&quot;&gt;&#x9;&lt;/span&gt;Recirculator Bypass Tube&lt;/div&gt;&lt;div&gt;Temperatures&lt;span style=&quot;white-space:pre&quot;&gt;&#x9;&lt;/span&gt;Recirculator Matching Tube&lt;/div&gt;&lt;div&gt;Temperatures&lt;span style=&quot;white-space:pre&quot;&gt;&#x9;&lt;/span&gt;Recirculating Arc Bellows Downstream&lt;/div&gt;&lt;div&gt;Temperatures&lt;span style=&quot;white-space:pre&quot;&gt;&#x9;&lt;/span&gt;Recirculating Arc Bellows Upstream&lt;/div&gt;&lt;div&gt;Temperatures&lt;span style=&quot;white-space:pre&quot;&gt;&#x9;&lt;/span&gt;DBA Pipe&lt;/div&gt;&lt;div&gt;Temperatures&lt;span style=&quot;white-space:pre&quot;&gt;&#x9;&lt;/span&gt;Tuner Gate Valve Upstream&lt;/div&gt;&lt;div&gt;Temperatures&lt;span style=&quot;white-space:pre&quot;&gt;&#x9;&lt;/span&gt;Transport End&lt;/div&gt;&lt;div&gt;Temperatures&lt;span style=&quot;white-space:pre&quot;&gt;&#x9;&lt;/span&gt;Transport Bellows Downstream&lt;/div&gt;&lt;div&gt;Temperatures&lt;span style=&quot;white-space:pre&quot;&gt;&#x9;&lt;/span&gt;Barrel Mid&lt;/div&gt;&lt;div&gt;MagRB&lt;span style=&quot;white-space:pre&quot;&gt;&#x9;&lt;/span&gt;Solenoid Relay - 4&lt;/div&gt;&lt;div&gt;MagRB&lt;span style=&quot;white-space:pre&quot;&gt;&#x9;&lt;/span&gt;Solenoid Relay - 5&lt;/div&gt;&lt;div&gt;MagRB&lt;span style=&quot;white-space:pre&quot;&gt;&#x9;&lt;/span&gt;WF H Read - 25&lt;/div&gt;&lt;div&gt;MagRB&lt;span style=&quot;white-space:pre&quot;&gt;&#x9;&lt;/span&gt;WF V Read - 25&lt;/div&gt;&lt;div&gt;MagRB&lt;span style=&quot;white-space:pre&quot;&gt;&#x9;&lt;/span&gt;WF H Read - 24&lt;/div&gt;&lt;div&gt;MagRB&lt;span style=&quot;white-space:pre&quot;&gt;&#x9;&lt;/span&gt;WF V Read - 24&lt;/div&gt;&lt;div&gt;MagRB&lt;span style=&quot;white-space:pre&quot;&gt;&#x9;&lt;/span&gt;WF H Read - 23&lt;/div&gt;&lt;div&gt;MagRB&lt;span style=&quot;white-space:pre&quot;&gt;&#x9;&lt;/span&gt;WF V Read - 23&lt;/div&gt;&lt;div&gt;MagRB&lt;span style=&quot;white-space:pre&quot;&gt;&#x9;&lt;/span&gt;Solenoid Resistance - 6&lt;/div&gt;&lt;div&gt;MagRB&lt;span style=&quot;white-space:pre&quot;&gt;&#x9;&lt;/span&gt;Solenoid Read - 6&lt;/div&gt;&lt;div&gt;MagRB&lt;span style=&quot;white-space:pre&quot;&gt;&#x9;&lt;/span&gt;Solenoid Relay - 6&lt;/div&gt;&lt;div&gt;MagRB&lt;span style=&quot;white-space:pre&quot;&gt;&#x9;&lt;/span&gt;Solenoid Relay - 7&lt;/div&gt;&lt;div&gt;MagRB&lt;span style=&quot;white-space:pre&quot;&gt;&#x9;&lt;/span&gt;Solenoid Relay - 9&lt;/div&gt;&lt;div&gt;MagRB&lt;span style=&quot;white-space:pre&quot;&gt;&#x9;&lt;/span&gt;Solenoid Read - 12&lt;/div&gt;&lt;div&gt;MagRB&lt;span style=&quot;white-space:pre&quot;&gt;&#x9;&lt;/span&gt;Solenoid Relay - 12&lt;/div&gt;&lt;div&gt;MagRB&lt;span style=&quot;white-space:pre&quot;&gt;&#x9;&lt;/span&gt;Solenoid Resistance - 12&lt;/div&gt;&lt;div&gt;MagRB&lt;span style=&quot;white-space:pre&quot;&gt;&#x9;&lt;/span&gt;WF H Read - 26&lt;/div&gt;&lt;div&gt;MagRB&lt;span style=&quot;white-space:pre&quot;&gt;&#x9;&lt;/span&gt;WF V Read - 26&lt;/div&gt;&lt;div&gt;MagRB&lt;span style=&quot;white-space:pre&quot;&gt;&#x9;&lt;/span&gt;WF H Read - 27&lt;/div&gt;&lt;div&gt;MagRB&lt;span style=&quot;white-space:pre&quot;&gt;&#x9;&lt;/span&gt;WF V Read - 27&lt;/div&gt;&lt;div&gt;MagRB&lt;span style=&quot;white-space:pre&quot;&gt;&#x9;&lt;/span&gt;WF H Read - 28&lt;/div&gt;&lt;div&gt;MagRB&lt;span style=&quot;white-space:pre&quot;&gt;&#x9;&lt;/span&gt;WF V Read - 28&lt;/div&gt;&lt;div&gt;MagRB&lt;span style=&quot;white-space:pre&quot;&gt;&#x9;&lt;/span&gt;Solenoid Relay - 10&lt;/div&gt;&lt;div&gt;MagRB&lt;span style=&quot;white-space:pre&quot;&gt;&#x9;&lt;/span&gt;Solenoid Relay - 11&lt;/div&gt;&lt;div&gt;MagRB&lt;span style=&quot;white-space:pre&quot;&gt;&#x9;&lt;/span&gt;Dipole Read - 9&lt;/div&gt;&lt;div&gt;MagRB&lt;span style=&quot;white-space:pre&quot;&gt;&#x9;&lt;/span&gt;Solenoid Relay - 8&lt;/div&gt;&lt;div&gt;Vacuum&lt;span style=&quot;white-space:pre&quot;&gt;&#x9;&lt;/span&gt;Recirc Vac&lt;/div&gt;&lt;div&gt;Vacuum&lt;span style=&quot;white-space:pre&quot;&gt;&#x9;&lt;/span&gt;Estation Vac&lt;/div&gt;&lt;div&gt;Vacuum&lt;span style=&quot;white-space:pre&quot;&gt;&#x9;&lt;/span&gt;Gun Cross Vac&lt;/div&gt;&lt;div&gt;Vacuum&lt;span style=&quot;white-space:pre&quot;&gt;&#x9;&lt;/span&gt;15 Deg Bend Vac&lt;/div&gt;&lt;div&gt;Vacuum&lt;span style=&quot;white-space:pre&quot;&gt;&#x9;&lt;/span&gt;Gun Vac&lt;/div&gt;&lt;div&gt;Vacuum&lt;span style=&quot;white-space:pre&quot;&gt;&#x9;&lt;/span&gt;Transport Turbo Pump 1&lt;/div&gt;&lt;div&gt;Vacuum&lt;span style=&quot;white-space:pre&quot;&gt;&#x9;&lt;/span&gt;Transport Turbo Pump 2&lt;/div&gt;&lt;div&gt;Vacuum&lt;span style=&quot;white-space:pre&quot;&gt;&#x9;&lt;/span&gt;Transport 1 Beam Vacuum&lt;/div&gt;&lt;div&gt;Vacuum&lt;span style=&quot;white-space:pre&quot;&gt;&#x9;&lt;/span&gt;Target Vacuum&lt;/div&gt;&lt;div&gt;Vacuum&lt;span style=&quot;white-space:pre&quot;&gt;&#x9;&lt;/span&gt;Transport 2 Beam Vacuum&lt;/div&gt;&lt;div&gt;Injector&lt;span style=&quot;white-space:pre&quot;&gt;&#x9;&lt;/span&gt;BH Pt&lt;/div&gt;&lt;div&gt;Injector&lt;span style=&quot;white-space:pre&quot;&gt;&#x9;&lt;/span&gt;DBA Dump Watts&lt;/div&gt;&lt;div&gt;Injector&lt;span style=&quot;white-space:pre&quot;&gt;&#x9;&lt;/span&gt;DBA Bypass Current&lt;/div&gt;&lt;div&gt;Injector&lt;span style=&quot;white-space:pre&quot;&gt;&#x9;&lt;/span&gt;Cu Gun Amp Flow Avg&lt;/div&gt;&lt;div&gt;Injector&lt;span style=&quot;white-space:pre&quot;&gt;&#x9;&lt;/span&gt;IR Temp&lt;/div&gt;&lt;div&gt;Injector&lt;span style=&quot;white-space:pre&quot;&gt;&#x9;&lt;/span&gt;PLC_LE_CHB_IR_Temp&lt;/div&gt;&lt;div&gt;Injector&lt;span style=&quot;white-space:pre&quot;&gt;&#x9;&lt;/span&gt;Cu Heat Tape Request&lt;/div&gt;&lt;div&gt;Injector&lt;span style=&quot;white-space:pre&quot;&gt;&#x9;&lt;/span&gt;BH Amp Pf&lt;/div&gt;&lt;div&gt;Injector&lt;span style=&quot;white-space:pre&quot;&gt;&#x9;&lt;/span&gt;BH Amp Pr&lt;/div&gt;&lt;div&gt;Injector&lt;span style=&quot;white-space:pre&quot;&gt;&#x9;&lt;/span&gt;BH V2&lt;/div&gt;&lt;div&gt;Injector&lt;span style=&quot;white-space:pre&quot;&gt;&#x9;&lt;/span&gt;Gun V1 kV&lt;/div&gt;&lt;div&gt;Injector&lt;span style=&quot;white-space:pre&quot;&gt;&#x9;&lt;/span&gt;Cu Amp Pf&lt;/div&gt;&lt;div&gt;Injector&lt;span style=&quot;white-space:pre&quot;&gt;&#x9;&lt;/span&gt;Cu Amp Pr&lt;/div&gt;&lt;div&gt;Injector&lt;span style=&quot;white-space:pre&quot;&gt;&#x9;&lt;/span&gt;DBA Bypass Dump&lt;/div&gt;&lt;div&gt;Injector&lt;span style=&quot;white-space:pre&quot;&gt;&#x9;&lt;/span&gt;Emitted Current&lt;/div&gt;&lt;div&gt;Injector&lt;span style=&quot;white-space:pre&quot;&gt;&#x9;&lt;/span&gt;CHB Volts&lt;/div&gt;&lt;div&gt;Injector&lt;span style=&quot;white-space:pre&quot;&gt;&#x9;&lt;/span&gt;CHB&amp;nbsp; Current&lt;/div&gt;&lt;div&gt;Injector&lt;span style=&quot;white-space:pre&quot;&gt;&#x9;&lt;/span&gt;Cu Amp Water Flow&lt;/div&gt;&lt;div&gt;Injector&lt;span style=&quot;white-space:pre&quot;&gt;&#x9;&lt;/span&gt;Cu Amp PtdBm&lt;/div&gt;&lt;div&gt;Injector&lt;span style=&quot;white-space:pre&quot;&gt;&#x9;&lt;/span&gt;V1 Test&lt;/div&gt;&lt;div&gt;Injector&lt;span style=&quot;white-space:pre&quot;&gt;&#x9;&lt;/span&gt;V1 Set Point&lt;/div&gt;&lt;div&gt;Beam&lt;span style=&quot;white-space:pre&quot;&gt;&#x9;&lt;/span&gt;Recirc Bypass Dump Power&lt;/div&gt;&lt;div&gt;Beam&lt;span style=&quot;white-space:pre&quot;&gt;&#x9;&lt;/span&gt;Electrometer Current&lt;/div&gt;&lt;div&gt;Beam&lt;span style=&quot;white-space:pre&quot;&gt;&#x9;&lt;/span&gt;Electrometer Ranging&lt;/div&gt;&lt;div&gt;Beam&lt;span style=&quot;white-space:pre&quot;&gt;&#x9;&lt;/span&gt;SRF PtdBm&lt;/div&gt;&lt;div&gt;Beam&lt;span style=&quot;white-space:pre&quot;&gt;&#x9;&lt;/span&gt;RFBM Power&lt;/div&gt;&lt;div&gt;MagSP&lt;span style=&quot;white-space:pre&quot;&gt;&#x9;&lt;/span&gt;Dipole SP - 9&lt;/div&gt;&lt;div&gt;MagSP&lt;span style=&quot;white-space:pre&quot;&gt;&#x9;&lt;/span&gt;Dipole SP - 10&lt;/div&gt;&lt;div&gt;MagSP&lt;span style=&quot;white-space:pre&quot;&gt;&#x9;&lt;/span&gt;WF H SP - 23&lt;/div&gt;&lt;div&gt;MagSP&lt;span style=&quot;white-space:pre&quot;&gt;&#x9;&lt;/span&gt;WF H SP - 24&lt;/div&gt;&lt;div&gt;MagSP&lt;span style=&quot;white-space:pre&quot;&gt;&#x9;&lt;/span&gt;WF H SP - 25&lt;/div&gt;&lt;div&gt;MagSP&lt;span style=&quot;white-space:pre&quot;&gt;&#x9;&lt;/span&gt;WF H SP - 26&lt;/div&gt;&lt;div&gt;MagSP&lt;span style=&quot;white-space:pre&quot;&gt;&#x9;&lt;/span&gt;WF H SP - 27&lt;/div&gt;&lt;div&gt;MagSP&lt;span style=&quot;white-space:pre&quot;&gt;&#x9;&lt;/span&gt;WF H SP - 28&lt;/div&gt;&lt;div&gt;MagSP&lt;span style=&quot;white-space:pre&quot;&gt;&#x9;&lt;/span&gt;WF V SP - 23&lt;/div&gt;&lt;div&gt;MagSP&lt;span style=&quot;white-space:pre&quot;&gt;&#x9;&lt;/span&gt;WF V SP - 24&lt;/div&gt;&lt;div&gt;MagSP&lt;span style=&quot;white-space:pre&quot;&gt;&#x9;&lt;/span&gt;WF V SP - 25&lt;/div&gt;&lt;div&gt;MagSP&lt;span style=&quot;white-space:pre&quot;&gt;&#x9;&lt;/span&gt;WF V SP - 26&lt;/div&gt;&lt;div&gt;MagSP&lt;span style=&quot;white-space:pre&quot;&gt;&#x9;&lt;/span&gt;WF V SP - 27&lt;/div&gt;&lt;div&gt;MagSP&lt;span style=&quot;white-space:pre&quot;&gt;&#x9;&lt;/span&gt;WF V SP - 28&lt;/div&gt;&lt;div&gt;MagSP&lt;span style=&quot;white-space:pre&quot;&gt;&#x9;&lt;/span&gt;Solenoid SP - 6&lt;/div&gt;&lt;div&gt;MagSP&lt;span style=&quot;white-space:pre&quot;&gt;&#x9;&lt;/span&gt;Solenoid SP - 12&lt;/div&gt;" style="text;strokeColor=none;fillColor=none;align=left;verticalAlign=middle;spacingLeft=4;spacingRight=4;overflow=hidden;points=[[0,0.5],[1,0.5]];portConstraint=eastwest;rotatable=0;whiteSpace=wrap;html=1;" vertex="1" parent="cLdxjcpRwKSDlAr2vYdq-23">
          <mxGeometry y="30" width="360" height="2040" as="geometry" />
        </mxCell>
      </root>
    </mxGraphModel>
  </diagram>
  <diagram id="WuAT-3E5Gfv-vJNbBy6x" name="IgnitionAirportDB">
    <mxGraphModel dx="1434" dy="738" grid="1" gridSize="10" guides="1" tooltips="1" connect="1" arrows="1" fold="1" page="1" pageScale="1" pageWidth="1400" pageHeight="850" math="0" shadow="0">
      <root>
        <mxCell id="0" />
        <mxCell id="1" parent="0" />
        <mxCell id="GKvGGPjLR7YNtcJ_cuGg-1" value="Ignition Airport DB" style="shape=cylinder3;whiteSpace=wrap;html=1;boundedLbl=1;backgroundOutline=1;size=15;" parent="1" vertex="1">
          <mxGeometry x="610" y="10" width="60" height="80" as="geometry" />
        </mxCell>
      </root>
    </mxGraphModel>
  </diagram>
</mxfile>
